External Loads File
version=1
nRows=31
nColumns=13
Range=5.000000e-03-10 seconds
endheader
time 	forceRightX 	forceRightY 	forceRightZ 	pointRightX 	pointRightY 	pointRightZ 	forceLeftX 	forceLeftY 	forceLeftZ 	pointLeftX 	pointLeftY 	pointLeftZ 		
2.505000 6.331725 245.343805 -0.000000 0.348867 0.473813 -0.108713 160.425393 54.566937 -0.000000 0.176272 0.155831 -0.345498
2.510000 7.678271 259.383196 -0.000000 0.355798 0.468899 -0.108367 132.537206 -25.239275 -0.000000 0.167326 0.162402 -0.345197
2.515000 9.601019 278.148856 -0.000000 0.362243 0.463154 -0.108021 107.178921 -89.372870 -0.000000 0.158934 0.169082 -0.344704
2.520000 11.933743 302.028780 -0.000000 0.368097 0.457000 -0.107552 84.699859 -137.042337 -0.000000 0.151230 0.176091 -0.344471
2.525000 14.416307 330.723638 -0.000000 0.373475 0.450426 -0.107136 65.697036 -168.094892 -0.000000 0.144142 0.182986 -0.344081
2.530000 17.038924 363.365178 -0.000000 0.378206 0.442793 -0.106772 50.605108 -183.733507 -0.000000 0.137611 0.189927 -0.343821
2.535000 19.032452 398.880926 -0.000000 0.382422 0.434867 -0.106398 40.007306 -186.381898 -0.000000 0.131571 0.197199 -0.343531
2.540000 20.314024 436.230629 -0.000000 0.386295 0.426258 -0.106029 33.872493 -179.383996 -0.000000 0.125884 0.204879 -0.343281
2.545000 20.506906 474.611356 -0.000000 0.389915 0.416912 -0.105327 32.102380 -166.112614 -0.000000 0.120657 0.212981 -0.343106
2.550000 19.487501 513.421592 -0.000000 0.393228 0.407026 -0.104481 34.299118 -149.514492 -0.000000 0.115801 0.221597 -0.342889
2.555000 16.921220 552.139014 -0.000000 0.396458 0.396679 -0.104478 39.889416 -131.887779 -0.000000 0.111518 0.230249 -0.342717
2.560000 12.490421 590.181353 -0.000000 0.399030 0.386451 -0.105068 47.989447 -114.888683 -0.000000 0.107845 0.239264 -0.342712
2.565000 7.660604 626.934425 -0.000000 0.401086 0.375960 -0.105524 57.219496 -99.737158 -0.000000 0.104819 0.248652 -0.342874
2.570000 2.858707 662.020368 -0.000000 0.402672 0.365135 -0.105498 66.522116 -87.103670 -0.000000 0.102456 0.258142 -0.342985
2.575000 -2.022233 695.379181 -0.000000 0.403849 0.354303 -0.105734 75.077103 -77.205572 -0.000000 0.100728 0.267742 -0.343278
2.580000 -6.292504 727.266419 -0.000000 0.404669 0.343350 -0.106015 82.227084 -70.033498 -0.000000 0.099683 0.277544 -0.343459
2.585000 -10.321881 758.138136 -0.000000 0.405034 0.332391 -0.106081 87.699371 -65.270397 -0.000000 0.099388 0.287417 -0.343622
2.590000 -13.106962 788.529863 -0.000000 0.404800 0.321337 -0.105665 91.285324 -62.696375 -0.000000 0.099821 0.297576 -0.343940
2.595000 -14.468226 818.995251 -0.000000 0.404207 0.310175 -0.105575 92.951129 -62.028239 -0.000000 0.100856 0.307914 -0.344217
2.600000 -14.662278 850.091830 -0.000000 0.403378 0.299045 -0.105835 92.716113 -62.953396 -0.000000 0.102630 0.318371 -0.344383
2.605000 -14.192925 882.290464 -0.000000 0.402194 0.288040 -0.106099 90.635800 -65.102758 -0.000000 0.104971 0.328720 -0.344336
2.610000 -12.370323 915.899346 -0.000000 0.400361 0.277117 -0.106100 86.721459 -68.165478 -0.000000 0.107928 0.338899 -0.344294
2.615000 -8.272896 951.044268 -0.000000 0.397951 0.266479 -0.106045 81.017347 -71.767218 -0.000000 0.111565 0.349165 -0.344481
2.620000 -2.324257 987.725628 -0.000000 0.394937 0.256003 -0.106036 73.741172 -75.365353 -0.000000 0.115646 0.359124 -0.344519
2.625000 7.638480 1025.901580 -0.000000 0.391473 0.245633 -0.106006 65.031443 -78.582630 -0.000000 0.120473 0.369241 -0.344660
2.630000 19.487958 1065.460217 -0.000000 0.387361 0.235635 -0.106004 55.456883 -80.673998 -0.000000 0.125789 0.379011 -0.344774
2.635000 34.128563 1106.110657 -0.000000 0.382663 0.226023 -0.106056 45.377598 -81.009321 -0.000000 0.131627 0.388656 -0.344801
2.640000 52.131224 1147.225675 -0.000000 0.377589 0.216506 -0.106129 35.171774 -78.785998 -0.000000 0.138036 0.398092 -0.344889
2.645000 72.829958 1187.823221 -0.000000 0.371931 0.207528 -0.106148 25.324313 -73.110505 -0.000000 0.145001 0.407315 -0.345004
2.650000 95.223050 1226.530336 -0.000000 0.365854 0.198876 -0.106315 16.357258 -63.205949 -0.000000 0.152338 0.415979 -0.345062
2.655000 119.365099 1261.452767 -0.000000 0.359342 0.190686 -0.106050 8.739730 -48.549106 -0.000000 0.160046 0.424158 -0.344910
